<?xml version="1.0" ?><!DOCTYPE svg  PUBLIC '-//W3C//DTD SVG 1.1//EN'  'http://www.w3.org/Graphics/SVG/1.1/DTD/svg11.dtd'><svg enable-background="new 0 0 64 64" height="64px" id="Layer_1" version="1.1" viewBox="0 0 64 64" width="64px" xml:space="preserve" xmlns="http://www.w3.org/2000/svg" xmlns:xlink="http://www.w3.org/1999/xlink"><g><g><path d="M9.277,24.575v35.213c0,2.277,2,4.12,4.463,4.12h36.52c2.463,0,4.463-1.843,4.463-4.12V24.575H9.277z     M51.689,57.348c0,1.922-1.729,3.48-3.859,3.48H16.227c-2.133,0-3.863-1.559-3.863-3.48V27.603h39.325V57.348z" fill="#ffffff"/></g><g><path d="M50.26,0.092H13.74c-2.464,0-4.463,2.143-4.463,4.786v16.597h45.446V4.877    C54.723,2.234,52.723,0.092,50.26,0.092z M51.754,18.272H12.248V6.57c0-1.864,1.738-3.375,3.88-3.375h31.745    c2.143,0,3.881,1.511,3.881,3.375V18.272z" fill="#ffffff"/></g><g><path d="M19.908,14.002c0,0.773-0.693,1.398-1.549,1.398l0,0c-0.854,0-1.548-0.625-1.548-1.398V7.729    c0-0.772,0.693-1.397,1.548-1.397l0,0c0.856,0,1.549,0.625,1.549,1.397V14.002z" fill="#ffffff"/></g><g><path d="M19.908,42.369c0,1.022-0.693,1.853-1.549,1.853l0,0c-0.854,0-1.548-0.83-1.548-1.853v-8.305    c0-1.021,0.693-1.851,1.548-1.851l0,0c0.856,0,1.549,0.829,1.549,1.851V42.369z" fill="#ffffff"/></g></g></svg>